# Blender 5.0.0
# www.blender.org
mtllib tree.mtl
g Tree_Cylinder.003
v -0.000000 1.116650 0.030861
v 0.000000 0.671641 4.395007
v 0.789591 0.789591 0.030861
v 0.474922 0.474922 4.395007
v 1.116650 0.000000 0.030861
v 0.671641 0.000000 4.395007
v 0.789591 -0.789591 0.030861
v 0.474922 -0.474922 4.395007
v -0.000000 -1.116650 0.030861
v 0.000000 -0.671641 4.395007
v -0.789591 -0.789591 0.030861
v -0.474922 -0.474922 4.395007
v -1.116650 0.000000 0.030861
v -0.671641 0.000000 4.395007
v -0.789591 0.789591 0.030861
v -0.474922 0.474922 4.395007
v 0.585806 0.585806 8.222059
v -0.000000 0.828455 8.222059
v 0.828455 0.000000 8.222059
v 0.585806 -0.585806 8.222059
v -0.000000 -0.828455 8.222059
v -0.585806 -0.585806 8.222059
v -0.828455 0.000000 8.222059
v -0.695557 0.579752 8.454855
v 2.047406 0.459050 12.081524
v 1.992088 0.481963 12.081524
v 2.070320 0.403732 12.081524
v 2.047406 0.348414 12.081524
v 1.992088 0.325501 12.081524
v 1.936770 0.348414 12.081524
v 1.913857 0.403732 12.081524
v 1.936770 0.459050 12.081524
v 0.652057 0.672489 10.311777
v 0.948892 0.501278 10.167985
v 0.337970 0.560523 10.475830
v 0.296320 -0.123127 10.524743
v 0.190619 0.230968 10.564044
v 0.907242 -0.182372 10.216898
v 0.593155 -0.294338 10.380951
v 1.054593 0.147183 10.128684
v -0.000000 0.828455 1.219680
v 0.585806 0.585806 1.219680
v 0.828455 0.000000 1.219680
v 0.585806 -0.585806 1.219680
v -0.000000 -0.828455 1.219680
v -0.585806 -0.585806 1.219680
v -0.828455 0.000000 1.219680
v -0.585806 0.585806 1.219680
v 0.644348 0.518095 9.243859
v -0.411912 0.098335 9.576339
v 0.188755 -0.582464 9.431101
v 0.814985 0.047273 9.215825
v 0.214317 0.728072 9.361064
v -0.409813 0.554847 9.460944
v -0.241275 -0.372487 9.548305
v 0.626272 -0.408594 9.293383
v -0.828455 0.000000 8.222059
v -0.754114 -0.523221 8.534323
v -0.411912 0.098335 9.576339
v -0.510397 -0.372321 9.472492
v 0.296320 -0.123127 10.524743
v 0.190619 0.230968 10.564044
v -3.278204 0.161345 11.320191
v -3.297341 0.115144 11.320191
v -3.264489 0.122900 11.427001
v -3.249606 0.158853 11.420884
v -3.297341 0.115144 11.320191
v -3.278204 0.068943 11.320191
v -3.264489 0.122900 11.427001
v -3.251031 0.085767 11.424790
v -2.601929 0.331615 10.953145
v -2.286073 0.588153 10.495697
v -2.601929 0.331615 10.953145
v -2.486967 -0.021661 10.673218
v -2.506141 0.653279 10.110765
v -2.805988 -0.043106 10.123189
v -3.069858 0.382505 10.199377
v -3.069858 0.382505 10.199377
v -1.470278 0.078752 10.095632
v -1.523624 -0.302240 9.811818
v -2.145954 0.208762 9.182582
v -2.145954 0.208762 9.182582
v -1.529351 0.501762 9.867079
v -1.470277 0.078752 10.095632
v -1.779525 0.592624 9.498264
v -1.855853 -0.289898 9.338235
v 0.585806 -0.585806 7.218218
v -0.000000 -0.828455 7.218218
v -0.828455 0.000000 7.218218
v -0.585806 0.585806 7.218218
v 0.585806 0.585806 7.218218
v 0.828455 0.000000 7.218218
v -0.585806 -0.585806 7.218218
v -0.000000 0.828455 7.218218
v 3.436341 -0.729068 8.597012
v 3.423362 -0.697735 8.597012
v 3.423362 -0.760402 8.597012
v 3.423362 -0.760402 8.543319
v 3.423362 -0.697735 8.543319
v 3.436341 -0.729068 8.543319
v 1.670293 -0.241579 8.254543
v 1.466017 0.182909 8.276628
v 1.672548 0.318949 7.572155
v 1.876825 -0.105540 7.550071
v 1.735210 -0.537670 7.425106
v 1.528679 -0.673709 8.129579
v 2.597052 -0.627286 8.733049
v 2.787841 -0.684523 8.310948
v 2.469664 -0.410613 8.751309
v 2.687331 -0.256638 8.460504
v 2.814719 -0.473311 8.442243
v 2.570174 -0.838498 8.601754
v -0.039483 2.813108 9.536580
v -0.074859 2.827761 9.536580
v -0.110235 2.813108 9.536580
v -0.039483 2.813108 9.475960
v -0.110235 2.813108 9.475960
v -0.074859 2.827761 9.475960
v 0.209046 2.126260 8.899709
v -0.034260 2.213450 8.936590
v -0.270674 2.102997 8.944882
v -0.311809 2.160467 8.537645
v -0.075395 2.270919 8.529353
v 0.167911 2.183730 8.492472
v -0.017130 1.231360 8.579325
v -0.448808 1.083544 7.877932
v 0.376859 1.095175 7.855345
v 0.397426 1.066441 8.560884
v -0.428240 1.054809 8.583471
v -0.037698 1.260095 7.873785
v -0.000000 -2.893111 8.711289
v 0.059380 -2.868515 8.711289
v -0.059380 -2.868515 8.711289
v 0.059380 -2.868515 8.609536
v -0.000000 -2.893111 8.609536
v -0.059380 -2.868515 8.609536
v -0.014003 -1.942631 7.703815
v -0.370747 -1.768452 7.671058
v 0.000220 -1.798084 8.317506
v 0.377638 -1.676295 8.280072
v -0.356524 -1.623905 8.284748
v 0.363415 -1.820842 7.666382
v -0.022028 -2.483245 8.027137
v 0.004227 -2.291822 8.424204
v 0.247845 -2.423925 7.981635
v -0.265200 -2.352587 7.979236
v 0.274100 -2.232502 8.378702
v -0.238944 -2.161164 8.376302
v -0.484788 -1.184955 7.374385
v 0.492683 -1.079249 8.172523
v -0.467567 -1.018797 8.176889
v -0.016505 -1.408691 7.412571
v 0.000715 -1.242533 8.215075
v 0.475462 -1.245407 7.370018
v 0.939681 1.601664 10.522170
v 0.995012 1.594638 10.642340
v 1.032531 1.572997 10.624166
v 0.994037 1.575123 10.507355
v 0.876869 1.218424 9.873040
v 1.043261 1.145810 10.280069
v 0.911284 1.210400 10.365952
v 0.683115 1.301434 9.953562
v 0.000000 0.669646 2.767072
v 0.473511 0.473511 2.767072
v 0.669646 -0.000000 2.767072
v 0.473511 -0.473511 2.767072
v 0.000000 -0.669646 2.767072
v -0.473511 -0.473511 2.767072
v -0.669646 -0.000000 2.767072
v -0.473511 0.473511 2.767072
v 0.000000 -0.649774 5.806613
v -0.459460 0.459460 5.806613
v 0.649774 0.000000 5.806613
v -0.459460 -0.459460 5.806613
v 0.000000 0.649774 5.806613
v 0.459460 -0.459460 5.806613
v -0.649774 0.000000 5.806613
v 0.459460 0.459460 5.806613
vn 0.3827 0.9239 -0.0011
vn 0.9239 0.3827 -0.0011
vn 0.9239 -0.3827 -0.0011
vn 0.3827 -0.9239 -0.0011
vn -0.3827 -0.9239 -0.0011
vn -0.9239 -0.3827 -0.0011
vn 0.0099 0.4464 0.8948
vn -0.9239 0.3827 -0.0011
vn -0.3827 0.9239 -0.0011
vn -0.0000 -0.0000 -1.0000
vn 0.4042 0.8899 -0.2114
vn -0.9481 0.3146 -0.0456
vn 0.3484 0.7538 0.5571
vn -0.3161 -0.7818 -0.5375
vn -0.9840 0.1444 0.1042
vn -0.1631 -0.6985 0.6967
vn 0.1641 0.0203 0.9862
vn -0.9239 -0.3827 -0.0000
vn -0.0000 -0.0000 1.0000
vn -0.2206 0.9364 0.2731
vn -0.6220 -0.2661 0.7364
vn 0.3600 -0.9319 0.0444
vn 0.8283 0.3053 -0.4698
vn -0.6245 0.4263 0.6545
vn -0.2477 -0.8252 0.5076
vn 0.8158 -0.4454 -0.3688
vn 0.8905 -0.4186 -0.1781
vn -0.3120 -0.8646 0.3938
vn -0.8031 0.2878 0.5217
vn 0.9025 0.3254 -0.2821
vn 0.3910 -0.9141 0.1079
vn -0.2424 0.9551 0.1704
vn 0.9088 0.2718 -0.3167
vn -0.3734 0.9015 0.2186
vn -0.9015 0.3734 0.2186
vn -0.9015 -0.3734 0.2186
vn -0.3734 -0.9015 0.2186
vn 0.3734 -0.9015 0.2186
vn 0.9015 -0.3734 0.2186
vn 0.9015 0.3734 0.2186
vn 0.3734 0.9015 0.2186
vn 0.4088 0.9124 0.0194
vn -0.2748 0.9540 0.1198
vn -0.8514 -0.3527 -0.3882
vn 0.3888 -0.9121 0.1302
vn 0.9310 0.3646 -0.0171
vn -0.2092 0.9482 0.2391
vn -0.3717 -0.8966 0.2406
vn 0.9243 -0.3806 0.0293
vn -0.8085 -0.1075 0.5786
vn 0.6328 -0.3059 0.7114
vn 0.2771 0.7110 0.6463
vn -0.0488 -0.9841 0.1710
vn -0.0819 -0.9539 0.2887
vn -0.8871 0.3862 0.2529
vn -0.8877 -0.3550 0.2933
vn -0.8416 -0.4588 -0.2848
vn -0.0464 -0.9955 0.0827
vn -0.4657 0.8807 0.0872
vn -0.0000 0.9363 0.3511
vn 0.7090 0.7051 0.0121
vn -0.4042 0.7539 -0.5179
vn -0.1695 -0.9786 0.1165
vn -0.6689 -0.4517 -0.5903
vn 0.6023 0.4429 0.6642
vn 0.4612 -0.5157 0.7221
vn 0.1753 0.9801 0.0934
vn 0.0295 0.9969 0.0725
vn 0.3348 -0.4392 0.8337
vn 0.3546 0.3604 0.8628
vn -0.5678 -0.5014 -0.6528
vn -0.0733 -0.9892 0.1270
vn -0.4748 0.6081 -0.6362
vn 0.2506 0.7426 0.6210
vn -0.9176 -0.3801 -0.1162
vn 0.9176 -0.3801 -0.1162
vn 0.3801 0.9176 -0.1162
vn -0.3801 0.9176 -0.1162
vn -0.3801 -0.9176 -0.1162
vn 0.9176 0.3801 -0.1162
vn -0.9176 0.3801 -0.1162
vn 0.3801 -0.9176 -0.1162
vn 0.9239 0.3827 -0.0000
vn 0.9239 -0.3827 -0.0000
vn 0.2323 0.2016 -0.9515
vn 0.0589 -0.9247 -0.3761
vn 0.3329 0.4060 -0.8511
vn 0.0658 -0.4834 0.8729
vn 0.0102 -0.1256 0.9920
vn 0.2387 0.0291 -0.9707
vn -0.0145 -0.9966 -0.0811
vn 0.3276 0.1653 -0.9302
vn -0.0701 -0.0528 0.9961
vn 0.2995 0.9476 0.1117
vn -0.4730 -0.2163 0.8541
vn 0.6779 0.1119 -0.7266
vn 0.0303 -0.9630 -0.2677
vn 0.7151 0.4057 -0.5693
vn -0.5476 -0.3316 0.7683
vn 0.2643 0.8899 0.3719
vn -0.3827 0.9239 -0.0000
vn 0.3827 0.9239 -0.0000
vn 0.2415 0.8381 -0.4892
vn 0.3200 -0.6495 0.6897
vn 0.9295 0.3671 -0.0366
vn -0.3809 0.7962 -0.4701
vn -0.2482 0.5248 -0.8142
vn 0.9793 0.1988 -0.0389
vn 0.1681 -0.3393 0.9255
vn 0.1331 0.5310 -0.8369
vn -0.0457 -0.3264 0.9441
vn -0.9922 0.1071 0.0633
vn -0.9126 0.4074 -0.0346
vn -0.2450 -0.6345 0.7331
vn 0.3143 0.7950 -0.5188
vn 0.3669 -0.5283 0.7657
vn 0.9264 0.3765 -0.0048
vn -0.3311 0.7822 -0.5277
vn 0.3827 -0.9239 -0.0000
vn -0.3827 -0.9239 -0.0000
vn -0.9705 -0.2037 0.1293
vn 0.1312 -0.8183 -0.5596
vn 0.9523 -0.2982 0.0643
vn 0.0823 0.4368 0.8958
vn 0.0014 0.1784 0.9840
vn 0.9828 -0.1840 0.0185
vn 0.0741 -0.4725 -0.8782
vn -0.9843 -0.1665 0.0584
vn -0.1533 -0.4726 -0.8678
vn 0.0328 0.1759 0.9839
vn -0.0384 0.1843 0.9821
vn 0.9837 -0.1788 0.0200
vn 0.0253 -0.4894 -0.8717
vn -0.9823 -0.1622 0.0933
vn -0.1355 -0.4940 -0.8589
vn 0.0739 0.1846 0.9800
vn 0.0652 -0.0686 0.9955
vn -0.0937 -0.2898 -0.9525
vn -0.9784 -0.2048 0.0282
vn 0.0655 -0.2745 -0.9593
vn 0.9849 -0.1732 0.0065
vn -0.0673 -0.0707 0.9952
vn 0.4225 0.8966 -0.1327
vn 0.1669 -0.6084 0.7759
vn -0.8855 -0.1154 0.4501
vn 0.1740 0.8405 -0.5131
vn 0.0786 0.6672 -0.7407
vn -0.8456 0.2951 0.4448
vn 0.3561 -0.2337 0.9048
vn 0.9409 -0.0436 -0.3358
vn -0.3810 0.9198 0.0944
vn -0.9198 0.3810 0.0944
vn -0.9198 -0.3810 0.0944
vn -0.3810 -0.9198 0.0944
vn 0.3810 -0.9198 0.0944
vn 0.9198 -0.3810 0.0944
vn 0.9198 0.3810 0.0944
vn 0.3810 0.9198 0.0944
vn 0.3826 -0.9238 0.0143
vn -0.9238 0.3826 0.0143
vn 0.9238 0.3826 0.0143
vn -0.3826 -0.9238 0.0143
vn -0.3826 0.9238 0.0143
vn 0.3826 0.9238 0.0143
vn 0.9238 -0.3826 0.0143
vn -0.9238 -0.3826 0.0143
vt 1.000000 0.813488
vt 1.000000 1.000000
vt 0.875000 1.000000
vt 0.875000 0.813488
vt 0.750000 1.000000
vt 0.750000 0.813488
vt 0.625000 1.000000
vt 0.625000 0.813488
vt 0.500000 1.000000
vt 0.500000 0.813488
vt 0.375000 1.000000
vt 0.375000 0.813488
vt 0.250000 1.000000
vt 0.250000 0.813488
vt 0.625000 1.000000
vt 0.497251 1.000000
vt 0.125000 1.000000
vt 0.125000 0.813488
vt 0.000000 1.000000
vt 0.000000 0.813488
vt 0.750000 0.490000
vt 0.919706 0.419706
vt 0.990000 0.250000
vt 0.919706 0.080294
vt 0.750000 0.010000
vt 0.580294 0.080294
vt 0.510000 0.250000
vt 0.580294 0.419706
vt 1.019879 1.000000
vt 1.135434 1.000000
vt 0.875000 1.000000
vt 0.391968 1.000000
vt 0.494008 1.000000
vt 0.419706 0.419706
vt 0.250000 0.490000
vt 0.080294 0.419706
vt 0.010000 0.250000
vt 0.080294 0.080294
vt 0.250000 0.010000
vt 0.419706 0.080294
vt 0.490000 0.250000
vt 0.148500 1.000000
vt 0.176290 1.000000
vt 0.212452 1.000000
vt 0.331809 1.000000
vt 0.367888 1.000000
vt 0.465013 1.000000
vt 0.688075 1.000000
vt 0.548954 1.000000
vt 0.722916 1.000000
vt 0.353410 1.000000
vt 0.432787 1.000000
vt 0.151332 1.000000
vt 0.229558 1.000000
vt 0.940605 1.000000
vt 0.072911 1.000000
vt 0.940605 1.000000
vt 0.125000 0.500000
vt 0.125000 0.636203
vt 0.000000 0.636203
vt 0.000000 0.500000
vt 0.250000 0.500000
vt 0.250000 0.636203
vt 0.375000 0.500000
vt 0.375000 0.636203
vt 0.500000 0.500000
vt 0.500000 0.636203
vt 0.625000 0.500000
vt 0.625000 0.636203
vt 0.750000 0.500000
vt 0.750000 0.636203
vt 0.875000 0.500000
vt 0.875000 0.636203
vt 1.000000 0.500000
vt 1.000000 0.636203
vt 1.065670 1.000000
vt 0.125000 1.000000
vt 0.353410 1.000000
vt 0.229558 1.000000
vt 0.375000 1.000000
vt 0.246772 1.000000
vt 0.223633 0.966797
vt 0.125217 1.000000
vt 0.232087 1.000000
vt 0.361744 1.000000
vt 0.354553 1.000000
vt 0.231325 1.000000
vt 0.169641 1.000000
vt 0.375000 1.000000
vt 0.625000 1.000000
vt 0.875000 1.000000
vt 0.375000 1.000000
vt 0.612875 1.000000
vt 0.148500 1.000000
s 0
g Tree_Material.011
usemtl Material.011
f 163/1/1 2/2/1 4/3/1 164/4/1
f 164/4/2 4/3/2 6/5/2 165/6/2
f 165/6/3 6/5/3 8/7/3 166/8/3
f 166/8/4 8/7/4 10/9/4 167/10/4
f 167/10/5 10/9/5 12/11/5 168/12/5
f 168/12/6 12/11/6 14/13/6 169/14/6
f 147/15/7 144/16/7 131/9/7 132/7/7
f 169/14/8 14/13/8 16/17/8 170/18/8
f 170/18/9 16/17/9 2/19/9 163/20/9
f 1/21/10 3/22/10 5/23/10 7/24/10 9/25/10 11/26/10 13/27/10 15/28/10
f 34/29/11 33/30/11 26/2/11 25/3/11
f 90/17/12 89/13/12 23/13/12 24/17/12
f 110/31/13 109/3/13 96/3/13 99/3/13
f 146/32/14 143/33/14 135/9/14 136/11/14
f 122/17/15 121/17/15 115/17/15 117/17/15
f 120/2/16 119/3/16 113/3/16 114/2/16
f 109/3/17 107/5/17 95/5/17 96/3/17
f 89/13/18 93/11/18 22/11/18 23/13/18
f 25/34/19 26/35/19 32/36/19 31/37/19 30/38/19 29/39/19 28/40/19 27/41/19
f 33/42/20 35/43/20 32/17/20 26/19/20
f 37/44/21 36/45/21 30/11/21 31/13/21
f 39/46/22 38/47/22 28/7/22 29/9/22
f 40/48/23 34/29/23 25/3/23 27/5/23
f 35/43/24 37/44/24 31/13/24 32/17/24
f 36/45/25 39/46/25 29/9/25 30/11/25
f 38/47/26 40/48/26 27/5/26 28/7/26
f 56/49/27 52/50/27 40/48/27 38/47/27
f 55/51/28 51/52/28 39/46/28 36/45/28
f 54/53/29 50/54/29 37/44/29 35/43/29
f 52/50/30 49/55/30 34/29/30 40/48/30
f 51/52/31 56/49/31 38/47/31 39/46/31
f 36/45/19 37/44/19 62/44/19 61/45/19
f 53/56/32 54/53/32 35/43/32 33/42/32
f 160/29/33 159/57/33 158/55/33 157/29/33
f 15/58/34 48/59/34 41/60/34 1/61/34
f 13/62/35 47/63/35 48/59/35 15/58/35
f 11/64/36 46/65/36 47/63/36 13/62/36
f 9/66/37 45/67/37 46/65/37 11/64/37
f 7/68/38 44/69/38 45/67/38 9/66/38
f 5/70/39 43/71/39 44/69/39 7/68/39
f 3/72/40 42/73/40 43/71/40 5/70/40
f 1/74/41 41/75/41 42/73/41 3/72/41
f 17/3/42 18/2/42 53/76/42 49/55/42
f 18/19/43 24/17/43 54/53/43 53/56/43
f 23/13/44 22/11/44 58/11/44 57/13/44
f 21/9/45 20/7/45 56/49/45 51/52/45
f 19/5/46 17/3/46 49/55/46 52/50/46
f 72/53/47 75/77/47 63/17/47 66/53/47
f 22/11/48 21/9/48 51/52/48 55/51/48
f 20/7/49 19/5/49 52/50/49 56/49/49
f 59/54/50 60/51/50 61/45/50 62/44/50
f 74/78/51 73/79/51 69/54/51 70/51/51
f 37/44/19 50/54/19 59/54/19 62/44/19
f 71/54/52 72/53/52 66/53/52 65/54/52
f 22/11/53 55/51/53 60/51/53 58/11/53
f 55/51/54 36/45/54 61/45/54 60/51/54
f 63/17/55 64/13/55 65/54/55 66/53/55
f 67/13/56 68/11/56 70/51/56 69/54/56
f 65/54/19 64/13/19 67/13/19 69/54/19
f 77/13/57 76/80/57 68/11/57 67/13/57
f 78/13/19 77/13/19 67/13/19 64/13/19
f 76/80/58 74/78/58 70/51/58 68/11/58
f 75/77/59 78/13/59 64/13/59 63/17/59
f 73/79/60 71/54/60 65/54/60 69/54/60
f 84/81/61 79/82/61 71/54/61 73/79/61
f 85/83/62 82/84/62 78/13/62 75/77/62
f 86/85/63 80/86/63 74/78/63 76/80/63
f 82/84/19 81/87/19 77/13/19 78/13/19
f 81/87/64 86/85/64 76/80/64 77/13/64
f 79/82/65 83/88/65 72/53/65 71/54/65
f 80/86/66 84/81/66 73/79/66 74/78/66
f 83/88/67 85/83/67 75/77/67 72/53/67
f 54/53/68 24/17/68 85/83/68 83/88/68
f 60/51/69 59/54/69 84/81/69 80/86/69
f 50/54/70 54/53/70 83/88/70 79/82/70
f 57/13/71 58/11/71 86/85/71 81/87/71
f 23/13/19 57/13/19 81/87/19 82/84/19
f 58/11/72 60/51/72 80/86/72 86/85/72
f 24/17/73 23/13/73 82/84/73 85/83/73
f 59/54/74 50/54/74 79/82/74 84/81/74
f 177/13/75 174/89/75 93/11/75 89/13/75
f 176/7/76 173/5/76 92/5/76 87/7/76
f 178/3/77 175/2/77 94/2/77 91/3/77
f 175/19/78 172/17/78 90/17/78 94/19/78
f 174/89/79 171/9/79 88/9/79 93/11/79
f 173/5/80 178/3/80 91/3/80 92/5/80
f 172/17/81 177/13/81 89/13/81 90/17/81
f 171/9/82 176/7/82 87/7/82 88/9/82
f 100/5/83 99/3/83 96/3/83 95/5/83
f 98/7/84 100/5/84 95/5/84 97/7/84
f 111/5/85 110/31/85 99/3/85 100/5/85
f 112/90/86 108/7/86 98/7/86 97/7/86
f 108/7/87 111/5/87 100/5/87 98/7/87
f 107/5/88 112/90/88 97/7/88 95/5/88
f 19/5/89 20/7/89 106/7/89 101/5/89
f 87/7/90 92/5/90 104/5/90 105/7/90
f 20/7/91 87/7/91 105/7/91 106/7/91
f 92/5/92 91/3/92 103/3/92 104/5/92
f 17/3/93 19/5/93 101/5/93 102/3/93
f 91/3/94 17/3/94 102/3/94 103/3/94
f 101/5/95 106/7/95 112/90/95 107/5/95
f 105/7/96 104/5/96 111/5/96 108/7/96
f 106/7/97 105/7/97 108/7/97 112/90/97
f 104/5/98 103/3/98 110/31/98 111/5/98
f 102/3/99 101/5/99 107/5/99 109/3/99
f 103/3/100 102/3/100 109/3/100 110/31/100
f 118/19/101 117/17/101 115/17/101 114/19/101
f 116/3/102 118/2/102 114/2/102 113/3/102
f 124/3/103 123/2/103 118/2/103 116/3/103
f 121/17/104 120/19/104 114/19/104 115/17/104
f 119/3/105 124/3/105 116/3/105 113/3/105
f 123/19/106 122/17/106 117/17/106 118/19/106
f 130/19/107 126/17/107 122/17/107 123/19/107
f 128/3/108 127/91/108 124/3/108 119/3/108
f 129/17/109 125/19/109 120/19/109 121/17/109
f 127/91/110 130/2/110 123/2/110 124/3/110
f 125/2/111 128/3/111 119/3/111 120/2/111
f 126/17/112 129/17/112 121/17/112 122/17/112
f 90/17/113 24/17/113 129/17/113 126/17/113
f 18/2/114 17/3/114 128/3/114 125/2/114
f 91/3/115 94/2/115 130/2/115 127/91/115
f 24/17/116 18/19/116 125/19/116 129/17/116
f 17/3/117 91/3/117 127/91/117 128/3/117
f 94/19/118 90/17/118 126/17/118 130/19/118
f 135/9/119 134/7/119 132/7/119 131/9/119
f 136/11/120 135/9/120 131/9/120 133/11/120
f 148/92/121 146/32/121 136/11/121 133/11/121
f 143/33/122 145/93/122 134/7/122 135/9/122
f 145/93/123 147/15/123 132/7/123 134/7/123
f 144/16/124 148/92/124 133/11/124 131/9/124
f 153/9/125 151/11/125 141/11/125 139/9/125
f 154/7/126 150/7/126 140/7/126 142/7/126
f 152/9/127 154/7/127 142/7/127 137/9/127
f 151/11/128 149/11/128 138/11/128 141/11/128
f 149/11/129 152/9/129 137/9/129 138/11/129
f 150/7/130 153/9/130 139/9/130 140/7/130
f 139/9/131 141/11/131 148/92/131 144/16/131
f 142/7/132 140/7/132 147/15/132 145/93/132
f 137/9/133 142/7/133 145/93/133 143/33/133
f 141/11/134 138/11/134 146/32/134 148/92/134
f 138/11/135 137/9/135 143/33/135 146/32/135
f 140/7/136 139/9/136 144/16/136 147/15/136
f 20/7/137 21/9/137 153/9/137 150/7/137
f 93/11/138 88/9/138 152/9/138 149/11/138
f 22/11/139 93/11/139 149/11/139 151/11/139
f 88/9/140 87/7/140 154/7/140 152/9/140
f 87/7/141 20/7/141 150/7/141 154/7/141
f 21/9/142 22/11/142 151/11/142 153/9/142
f 158/55/143 155/76/143 156/30/143 157/29/143
f 161/30/144 160/29/144 157/29/144 156/30/144
f 162/56/145 161/94/145 156/42/145 155/56/145
f 159/57/146 162/76/146 155/76/146 158/55/146
f 49/55/147 53/76/147 162/76/147 159/57/147
f 53/56/148 33/42/148 161/94/148 162/56/148
f 33/30/149 34/29/149 160/29/149 161/30/149
f 34/29/150 49/55/150 159/57/150 160/29/150
f 48/59/151 170/18/151 163/20/151 41/60/151
f 47/63/152 169/14/152 170/18/152 48/59/152
f 46/65/153 168/12/153 169/14/153 47/63/153
f 45/67/154 167/10/154 168/12/154 46/65/154
f 44/69/155 166/8/155 167/10/155 45/67/155
f 43/71/156 165/6/156 166/8/156 44/69/156
f 42/73/157 164/4/157 165/6/157 43/71/157
f 41/75/158 163/1/158 164/4/158 42/73/158
f 10/9/159 8/7/159 176/7/159 171/9/159
f 16/17/160 14/13/160 177/13/160 172/17/160
f 6/5/161 4/3/161 178/3/161 173/5/161
f 12/11/162 10/9/162 171/9/162 174/89/162
f 2/19/163 16/17/163 172/17/163 175/19/163
f 4/3/164 2/2/164 175/2/164 178/3/164
f 8/7/165 6/5/165 173/5/165 176/7/165
f 14/13/166 12/11/166 174/89/166 177/13/166
