# Blender 5.0.0
# www.blender.org
mtllib bigrock.mtl
g BigRock_Icosphere.007
v -0.000000 -0.000000 0.006207
v 2.949622 0.983387 0.006207
v 1.381580 -2.317606 0.006207
v -2.637048 -2.415745 0.006207
v -3.090203 0.824619 0.006207
v 0.498608 2.925372 0.006207
v 2.806073 -0.829039 2.085234
v -1.306732 -1.794353 2.085233
v -2.484963 -0.140561 2.085233
v -1.012355 2.641376 2.085234
v 1.116997 2.533151 2.085224
v 0.263701 0.312489 3.443584
v 0.794275 -1.279032 0.006207
v 1.461876 0.360159 0.006207
v 2.519525 -0.784232 0.006207
v 2.088534 2.297502 0.006207
v 0.109229 1.501621 0.006207
v -0.971001 -1.150649 0.006207
v -1.072664 -2.782195 0.006207
v -1.394373 0.567908 0.006207
v -3.261320 -0.935249 0.006207
v -1.171528 2.204188 0.006207
v 2.440273 1.714351 0.986279
v 1.279631 3.293658 0.986279
v 1.877984 -1.584780 0.986279
v 3.052433 0.406614 1.353168
v -1.955597 -2.693786 0.986279
v 0.369807 -2.644301 0.986279
v -3.344798 -0.080076 0.986279
v -3.116238 -1.714353 0.986279
v -0.369808 3.244174 0.986279
v -1.730848 1.759138 0.986279
v 2.800168 0.500024 2.278173
v 2.192845 -1.397074 2.278177
v -2.024053 -1.597503 2.278172
v -1.935900 0.788441 2.278177
v 0.103922 2.724936 2.278173
v 1.539772 -0.126773 3.076596
v 0.833166 1.587185 3.076590
v 0.257822 -0.871877 3.076596
v -1.930326 -0.309035 3.076596
v -0.681527 1.697344 3.076596
vn -0.0000 -0.0000 -1.0000
vn 0.8361 0.5479 0.0259
vn 0.8024 -0.5955 0.0388
vn -0.2265 -0.9670 -0.1168
vn -0.9814 0.0954 -0.1668
vn -0.3324 0.7698 -0.5449
vn 0.8847 0.4491 0.1248
vn 0.5474 -0.7792 0.3054
vn -0.6283 -0.7445 0.2256
vn -0.6946 0.6095 0.3822
vn -0.0283 0.9429 -0.3318
vn 0.5719 -0.1154 0.8122
vn 0.0525 -0.7711 0.6346
vn -0.8674 -0.2150 0.4488
vn -0.6811 0.4031 0.6112
vn 0.2592 0.6606 0.7046
vn 0.0195 0.2685 0.9631
vn 0.0431 0.5922 0.8046
vn -0.1737 0.6836 0.7089
vn -0.1975 0.1229 0.9726
vn -0.6850 0.4263 0.5908
vn -0.7865 0.3607 0.5013
vn -0.0758 -0.2948 0.9526
vn -0.1325 -0.5151 0.8468
vn -0.0122 -0.7223 0.6914
vn 0.1700 -0.2924 0.9411
vn 0.2454 -0.4223 0.8726
vn 0.5012 -0.2609 0.8250
vn 0.3151 0.1299 0.9401
vn 0.4570 0.1884 0.8693
vn 0.5518 0.5188 0.6530
vn 0.2566 0.7766 0.5754
vn -0.0277 0.9239 0.3815
vn -0.1387 0.9002 0.4127
vn -0.8677 0.4536 0.2031
vn -0.7035 0.6173 0.3522
vn -0.7395 0.3133 0.5958
vn -0.7481 -0.1511 0.6461
vn -0.5495 -0.6512 0.5235
vn -0.0357 -0.7629 0.6455
vn 0.0492 -0.7524 0.6569
vn 0.5747 -0.8181 -0.0212
vn 0.6691 -0.7411 -0.0554
vn 0.9633 -0.0344 0.2662
vn 0.8676 0.4595 0.1902
vn 0.6942 0.6108 0.3808
vn -0.7359 0.6744 -0.0603
vn -0.7325 0.6713 -0.1132
vn -0.5834 0.8114 0.0355
vn -0.7857 -0.1099 0.6087
vn -0.9897 -0.1384 0.0365
vn -0.9080 -0.3829 -0.1700
vn 0.0166 -0.7785 0.6274
vn 0.0211 -0.9938 0.1087
vn 0.1843 -0.9737 -0.1343
vn 0.8166 -0.4060 -0.4104
vn 0.8440 -0.5211 0.1268
vn 0.9570 -0.2329 -0.1728
vn 0.7123 0.5234 0.4676
vn 0.8042 0.5910 0.0630
vn 0.3091 0.7826 -0.5404
vt 0.181819 0.000000
vt 0.227273 0.078731
vt 0.136365 0.078731
vt 0.272728 0.157461
vt 0.318182 0.078731
vt 0.363637 0.157461
vt 0.909091 0.000000
vt 0.954545 0.078731
vt 0.863636 0.078731
vt 0.727273 0.000000
vt 0.772727 0.078731
vt 0.681818 0.078731
vt 0.545455 0.000000
vt 0.590909 0.078731
vt 0.500000 0.078731
vt 0.318182 0.236191
vt 0.090910 0.157461
vt 0.181819 0.157461
vt 0.136365 0.236191
vt 0.818182 0.157461
vt 0.909091 0.157461
vt 0.863636 0.236191
vt 0.636364 0.157461
vt 0.727273 0.157461
vt 0.681818 0.236191
vt 0.454546 0.157461
vt 0.545455 0.157461
vt 0.500000 0.236191
vt 0.227273 0.236191
vt 0.045455 0.236191
vt 0.772727 0.236191
vt 0.590909 0.236191
vt 0.409092 0.236191
vt 0.181819 0.314921
vt 0.272728 0.314921
vt 0.227273 0.393651
vt 0.000000 0.314921
vt 0.090910 0.314921
vt 0.045455 0.393651
vt 0.727273 0.314921
vt 0.818182 0.314921
vt 0.772727 0.393651
vt 0.545455 0.314921
vt 0.636364 0.314921
vt 0.590909 0.393651
vt 0.363637 0.314921
vt 0.454546 0.314921
vt 0.409092 0.393651
vt 0.500000 0.393651
vt 0.454546 0.472382
vt 0.681818 0.393651
vt 0.636364 0.472382
vt 0.863636 0.393651
vt 0.818182 0.472382
vt 0.909091 0.314921
vt 0.136365 0.393651
vt 0.090910 0.472382
vt 0.318182 0.393651
vt 0.272728 0.472382
vt 0.954545 0.236191
vt 1.000000 0.157461
vt 0.409092 0.078731
vt 0.363637 0.000000
s 0
g BigRock_Material.018
usemtl Material.018
f 1/1/1 14/2/1 13/3/1
f 2/4/1 14/5/1 16/6/1
f 1/7/1 13/8/1 18/9/1
f 1/10/1 18/11/1 20/12/1
f 1/13/1 20/14/1 17/15/1
f 2/4/2 16/6/2 23/16/2
f 3/17/3 15/18/3 25/19/3
f 4/20/4 19/21/4 27/22/4
f 5/23/5 21/24/5 29/25/5
f 6/26/6 22/27/6 31/28/6
f 2/4/7 23/16/7 26/29/7
f 3/17/8 25/19/8 28/30/8
f 4/20/9 27/22/9 30/31/9
f 5/23/10 29/25/10 32/32/10
f 6/26/11 31/28/11 24/33/11
f 7/34/12 33/35/12 38/36/12
f 8/37/13 34/38/13 40/39/13
f 9/40/14 35/41/14 41/42/14
f 10/43/15 36/44/15 42/45/15
f 11/46/16 37/47/16 39/48/16
f 39/48/17 42/49/17 12/50/17
f 39/48/18 37/47/18 42/49/18
f 37/47/19 10/43/19 42/49/19
f 42/45/20 41/51/20 12/52/20
f 42/45/21 36/44/21 41/51/21
f 36/44/22 9/40/22 41/51/22
f 41/42/23 40/53/23 12/54/23
f 41/42/24 35/41/24 40/53/24
f 35/41/25 8/55/25 40/53/25
f 40/39/26 38/56/26 12/57/26
f 40/39/27 34/38/27 38/56/27
f 34/38/28 7/34/28 38/56/28
f 38/36/29 39/58/29 12/59/29
f 38/36/30 33/35/30 39/58/30
f 33/35/31 11/46/31 39/58/31
f 24/33/32 37/47/32 11/46/32
f 24/33/33 31/28/33 37/47/33
f 31/28/34 10/43/34 37/47/34
f 32/32/35 36/44/35 10/43/35
f 32/32/36 29/25/36 36/44/36
f 29/25/37 9/40/37 36/44/37
f 30/31/38 35/41/38 9/40/38
f 30/31/39 27/22/39 35/41/39
f 27/22/40 8/55/40 35/41/40
f 28/30/41 34/38/41 8/37/41
f 28/30/42 25/19/42 34/38/42
f 25/19/43 7/34/43 34/38/43
f 26/29/44 33/35/44 7/34/44
f 26/29/45 23/16/45 33/35/45
f 23/16/46 11/46/46 33/35/46
f 31/28/47 32/32/47 10/43/47
f 31/28/48 22/27/48 32/32/48
f 22/27/49 5/23/49 32/32/49
f 29/25/50 30/31/50 9/40/50
f 29/25/51 21/24/51 30/31/51
f 21/24/52 4/20/52 30/31/52
f 27/22/53 28/60/53 8/55/53
f 27/22/54 19/21/54 28/60/54
f 19/21/55 3/61/55 28/60/55
f 25/19/56 26/29/56 7/34/56
f 25/19/57 15/18/57 26/29/57
f 15/18/58 2/4/58 26/29/58
f 23/16/59 24/33/59 11/46/59
f 23/16/60 16/6/60 24/33/60
f 16/6/61 6/26/61 24/33/61
f 17/15/1 22/27/1 6/26/1
f 17/15/1 20/14/1 22/27/1
f 20/14/1 5/23/1 22/27/1
f 20/12/1 21/24/1 5/23/1
f 20/12/1 18/11/1 21/24/1
f 18/11/1 4/20/1 21/24/1
f 18/9/1 19/21/1 4/20/1
f 18/9/1 13/8/1 19/21/1
f 13/8/1 3/61/1 19/21/1
f 16/6/1 17/62/1 6/26/1
f 16/6/1 14/5/1 17/62/1
f 14/5/1 1/63/1 17/62/1
f 13/3/1 15/18/1 3/17/1
f 13/3/1 14/2/1 15/18/1
f 14/2/1 2/4/1 15/18/1
