# Blender 5.0.0
# www.blender.org
mtllib mediumrock.mtl
g MediumRock_Icosphere.008
v -0.000000 -0.000000 -0.022986
v 1.017544 -0.957319 -0.022986
v -0.388661 -1.315228 -0.022986
v -1.257753 -0.108440 -0.022986
v -0.388661 0.969338 -0.022986
v 1.017544 0.758260 -0.022986
v 0.524153 -0.831739 0.804265
v -0.707521 -0.268649 0.804265
v -0.506965 0.786506 0.804265
v 0.219624 0.831739 0.804265
v 0.733143 0.156440 0.804261
v 0.162697 0.000000 1.344757
v -0.185123 -0.569758 -0.022986
v 0.484666 -0.352127 -0.022986
v 0.369649 -0.921890 -0.022986
v 1.196190 -0.099530 -0.022986
v 0.484666 0.352127 -0.022986
v -0.599083 -0.000000 -0.022986
v -0.967741 -0.817769 -0.022986
v -0.185123 0.569758 -0.022986
v -0.967741 0.569760 -0.022986
v 0.369649 1.220479 -0.022986
v 1.147544 -0.302143 0.366987
v 1.006145 0.302143 0.366987
v 0.253909 -0.977769 0.366987
v 0.709221 -0.589565 0.512974
v -1.147545 -0.302143 0.366987
v -0.709221 -0.791032 0.366987
v -0.709221 1.063500 0.366987
v -1.147545 0.302143 0.366987
v 0.567821 0.791032 0.366987
v 0.090780 1.250237 0.366987
v 0.672890 -0.303600 0.881036
v 0.194051 -0.791027 0.881037
v -0.831737 0.000000 0.881036
v -0.257025 1.063495 0.881037
v 0.531491 0.513727 0.881036
v 0.158844 -0.081166 1.198731
v 0.514042 0.185282 1.198728
v -0.198972 -0.302142 1.198731
v -0.415867 0.302142 1.198731
v 0.017445 0.488880 1.198731
vn -0.0000 -0.0000 -1.0000
vn 0.9789 -0.2039 0.0162
vn 0.4604 -0.8876 0.0095
vn -0.9231 -0.3774 0.0734
vn -0.4728 0.6852 -0.5541
vn 0.4977 0.6976 0.5153
vn 0.5520 -0.5046 0.6638
vn -0.1241 -0.6400 0.7583
vn -0.9623 -0.0000 0.2720
vn -0.2094 0.8972 -0.3888
vn 0.5807 0.5206 0.6259
vn 0.4297 -0.2473 0.8684
vn -0.4584 -0.7132 0.5304
vn -0.7165 0.3545 0.6008
vn 0.3973 0.5820 0.7095
vn 0.8227 0.3720 0.4298
vn 0.2052 0.3356 0.9194
vn 0.3856 0.6308 0.6733
vn 0.4104 0.5736 0.7089
vn -0.1096 0.2544 0.9609
vn -0.1768 0.4102 0.8947
vn -0.6470 0.4047 0.6463
vn -0.2950 -0.1059 0.9496
vn -0.5095 -0.1829 0.8408
vn -0.5637 -0.4572 0.6879
vn 0.4775 -0.7732 0.4172
vn 0.2389 -0.3868 0.8907
vn 0.1613 -0.3965 0.9038
vn 0.5515 -0.7352 0.3941
vn 0.3281 -0.4374 0.8372
vn 0.8727 -0.0330 0.4871
vn 0.7590 0.3047 0.5754
vn 0.6882 0.6171 0.3815
vn 0.5985 0.6866 0.4127
vn 0.4348 0.7111 0.5525
vn -0.2229 0.9549 0.1961
vn -0.6731 0.4432 0.5921
vn -0.6936 0.3480 0.6307
vn -0.8521 -0.0000 0.5235
vn -0.6061 -0.4647 0.6455
vn -0.4003 -0.5875 0.7033
vn -0.1805 -0.9310 0.3172
vn -0.0376 -0.9406 0.3373
vn 0.8982 -0.2997 0.3215
vn 0.5807 -0.6141 0.5345
vn 0.7346 0.0170 0.6783
vn 0.6240 0.6482 0.4365
vn 0.6346 0.6592 0.4035
vn -0.3014 0.9099 -0.2849
vn -0.7043 0.4055 0.5826
vn -0.8652 0.4981 -0.0571
vn -0.9087 0.3886 -0.1523
vn -0.5813 -0.5212 0.6249
vn -0.6553 -0.5875 0.4747
vn -0.5865 -0.6828 0.4356
vn 0.6706 -0.7212 -0.1736
vn 0.6324 -0.7708 0.0772
vn -0.0457 -0.8358 0.5472
vn 0.8037 0.1881 0.5645
vn 0.9468 0.2216 0.2332
vn 0.9458 0.1970 0.2580
vt 0.181819 0.000000
vt 0.227273 0.078731
vt 0.136365 0.078731
vt 0.272728 0.157461
vt 0.318182 0.078731
vt 0.363637 0.157461
vt 0.909091 0.000000
vt 0.954545 0.078731
vt 0.863636 0.078731
vt 0.727273 0.000000
vt 0.772727 0.078731
vt 0.681818 0.078731
vt 0.545455 0.000000
vt 0.590909 0.078731
vt 0.500000 0.078731
vt 0.318182 0.236191
vt 0.090910 0.157461
vt 0.181819 0.157461
vt 0.136365 0.236191
vt 0.818182 0.157461
vt 0.909091 0.157461
vt 0.863636 0.236191
vt 0.636364 0.157461
vt 0.727273 0.157461
vt 0.681818 0.236191
vt 0.454546 0.157461
vt 0.545455 0.157461
vt 0.500000 0.236191
vt 0.227273 0.236191
vt 0.045455 0.236191
vt 0.772727 0.236191
vt 0.590909 0.236191
vt 0.409092 0.236191
vt 0.181819 0.314921
vt 0.272728 0.314921
vt 0.227273 0.393651
vt 0.000000 0.314921
vt 0.090910 0.314921
vt 0.045455 0.393651
vt 0.727273 0.314921
vt 0.818182 0.314921
vt 0.772727 0.393651
vt 0.545455 0.314921
vt 0.636364 0.314921
vt 0.590909 0.393651
vt 0.363637 0.314921
vt 0.454546 0.314921
vt 0.409092 0.393651
vt 0.500000 0.393651
vt 0.454546 0.472382
vt 0.681818 0.393651
vt 0.636364 0.472382
vt 0.863636 0.393651
vt 0.818182 0.472382
vt 0.909091 0.314921
vt 0.136365 0.393651
vt 0.090910 0.472382
vt 0.318182 0.393651
vt 0.272728 0.472382
vt 0.954545 0.236191
vt 1.000000 0.157461
vt 0.409092 0.078731
vt 0.363637 0.000000
s 0
g MediumRock_Material.019
usemtl Material.019
f 1/1/1 14/2/1 13/3/1
f 2/4/1 14/5/1 16/6/1
f 1/7/1 13/8/1 18/9/1
f 1/10/1 18/11/1 20/12/1
f 1/13/1 20/14/1 17/15/1
f 2/4/2 16/6/2 23/16/2
f 3/17/3 15/18/3 25/19/3
f 4/20/4 19/21/4 27/22/4
f 5/23/5 21/24/5 29/25/5
f 6/26/6 22/27/6 31/28/6
f 2/4/7 23/16/7 26/29/7
f 3/17/8 25/19/8 28/30/8
f 4/20/9 27/22/9 30/31/9
f 5/23/10 29/25/10 32/32/10
f 6/26/11 31/28/11 24/33/11
f 7/34/12 33/35/12 38/36/12
f 8/37/13 34/38/13 40/39/13
f 9/40/14 35/41/14 41/42/14
f 10/43/15 36/44/15 42/45/15
f 11/46/16 37/47/16 39/48/16
f 39/48/17 42/49/17 12/50/17
f 39/48/18 37/47/18 42/49/18
f 37/47/19 10/43/19 42/49/19
f 42/45/20 41/51/20 12/52/20
f 42/45/21 36/44/21 41/51/21
f 36/44/22 9/40/22 41/51/22
f 41/42/23 40/53/23 12/54/23
f 41/42/24 35/41/24 40/53/24
f 35/41/25 8/55/25 40/53/25
f 40/39/26 38/56/26 12/57/26
f 40/39/27 34/38/27 38/56/27
f 34/38/28 7/34/28 38/56/28
f 38/36/29 39/58/29 12/59/29
f 38/36/30 33/35/30 39/58/30
f 33/35/31 11/46/31 39/58/31
f 24/33/32 37/47/32 11/46/32
f 24/33/33 31/28/33 37/47/33
f 31/28/34 10/43/34 37/47/34
f 32/32/35 36/44/35 10/43/35
f 32/32/36 29/25/36 36/44/36
f 29/25/37 9/40/37 36/44/37
f 30/31/38 35/41/38 9/40/38
f 30/31/39 27/22/39 35/41/39
f 27/22/40 8/55/40 35/41/40
f 28/30/41 34/38/41 8/37/41
f 28/30/42 25/19/42 34/38/42
f 25/19/43 7/34/43 34/38/43
f 26/29/44 33/35/44 7/34/44
f 26/29/45 23/16/45 33/35/45
f 23/16/46 11/46/46 33/35/46
f 31/28/47 32/32/47 10/43/47
f 31/28/48 22/27/48 32/32/48
f 22/27/49 5/23/49 32/32/49
f 29/25/50 30/31/50 9/40/50
f 29/25/51 21/24/51 30/31/51
f 21/24/52 4/20/52 30/31/52
f 27/22/53 28/60/53 8/55/53
f 27/22/54 19/21/54 28/60/54
f 19/21/55 3/61/55 28/60/55
f 25/19/56 26/29/56 7/34/56
f 25/19/57 15/18/57 26/29/57
f 15/18/58 2/4/58 26/29/58
f 23/16/59 24/33/59 11/46/59
f 23/16/60 16/6/60 24/33/60
f 16/6/61 6/26/61 24/33/61
f 17/15/1 22/27/1 6/26/1
f 17/15/1 20/14/1 22/27/1
f 20/14/1 5/23/1 22/27/1
f 20/12/1 21/24/1 5/23/1
f 20/12/1 18/11/1 21/24/1
f 18/11/1 4/20/1 21/24/1
f 18/9/1 19/21/1 4/20/1
f 18/9/1 13/8/1 19/21/1
f 13/8/1 3/61/1 19/21/1
f 16/6/1 17/62/1 6/26/1
f 16/6/1 14/5/1 17/62/1
f 14/5/1 1/63/1 17/62/1
f 13/3/1 15/18/1 3/17/1
f 13/3/1 14/2/1 15/18/1
f 14/2/1 2/4/1 15/18/1
