# Blender 5.0.0
# www.blender.org
mtllib bush.mtl
g Bush_Cube.007
v -0.093953 -0.329063 -0.011854
v 0.050388 0.066463 1.309875
v -0.255985 -0.227116 -0.011854
v 0.036406 0.076976 1.309220
v 0.255987 0.227120 -0.011854
v 0.070751 0.093336 1.306491
v 0.093956 0.329067 -0.011854
v 0.056769 0.103848 1.305836
v 0.005427 -0.182477 0.590427
v -0.070286 -0.134839 0.590427
v 0.088499 0.117528 0.523822
v 0.164212 0.069891 0.523822
v 0.010197 -0.088694 0.929738
v -0.036088 -0.059572 0.929738
v 0.046350 0.071451 0.918819
v 0.092634 0.042330 0.918819
v -0.042131 -0.091952 0.748542
v 0.053977 0.060799 0.789882
v 0.103872 0.029407 0.789882
v 0.007763 -0.123345 0.748542
v -0.122314 -0.144346 0.369667
v 0.077558 0.173325 0.343498
v 0.170966 0.114555 0.343498
v -0.028907 -0.203116 0.369667
v 0.721045 0.418554 -0.011854
v 0.894436 0.462553 1.287542
v 0.759622 0.606062 -0.011854
v 0.901562 0.497190 1.287542
v 1.364679 0.286139 -0.011854
v 0.948398 0.451451 1.328169
v 1.403255 0.473647 -0.011854
v 0.955524 0.486088 1.328169
v 0.893190 0.376959 0.590427
v 0.911216 0.464577 0.590427
v 1.203264 0.404494 0.523822
v 1.185238 0.316876 0.523822
v 0.828513 0.437133 0.910750
v 0.839532 0.490695 0.910750
v 0.989205 0.459903 0.937808
v 0.978186 0.406341 0.937808
v 0.110723 0.364377 -0.011854
v 0.517272 0.653082 1.318964
v 0.025676 0.535884 -0.011854
v 0.501562 0.684763 1.318964
v 0.699429 0.656307 -0.011854
v 0.570920 0.679685 1.285799
v 0.614382 0.827813 -0.011854
v 0.555210 0.711366 1.285799
v 0.196971 0.450699 0.771872
v 0.146593 0.552292 0.771871
v 0.485223 0.720213 0.687438
v 0.535601 0.618619 0.687438
v 1.774952 0.953486 -0.011854
v 1.975614 0.497012 1.318964
v 1.960099 1.002148 -0.011854
v 2.009814 0.506001 1.318964
v 1.941988 0.317957 -0.011854
v 1.990835 0.439098 1.285799
v 2.127135 0.366619 -0.011854
v 2.025036 0.448087 1.285799
v 1.842079 0.851583 0.771872
v 1.951752 0.880408 0.771871
v 2.047833 0.514846 0.687438
v 1.938159 0.486020 0.687438
v 1.704769 0.344796 -0.011854
v 1.712848 0.166092 1.287542
v 1.880625 0.269150 -0.011854
v 1.745332 0.152119 1.287542
v 1.445111 -0.258839 -0.011854
v 1.691079 0.115484 1.328169
v 1.620966 -0.334485 -0.011854
v 1.723563 0.101510 1.328169
v 1.629269 0.184596 0.590427
v 1.711443 0.149249 0.590427
v 1.593623 -0.124650 0.523822
v 1.511449 -0.089302 0.523822
v 1.701265 0.235790 0.910750
v 1.751498 0.214182 0.910750
v 1.691116 0.073811 0.937808
v 1.640882 0.095419 0.937808
v 1.137128 1.293976 -0.011854
v 1.495359 1.072738 1.309875
v 1.269694 1.432083 -0.011854
v 1.508478 1.084309 1.309220
v 1.611188 0.838932 -0.011854
v 1.517565 1.047368 1.306491
v 1.743755 0.977039 -0.011854
v 1.530685 1.058939 1.305836
v 1.260626 1.167042 0.590427
v 1.322572 1.231576 0.590427
v 1.537676 1.025100 0.523822
v 1.475730 0.960566 0.523822
v 1.351514 1.143433 0.929738
v 1.389382 1.182883 0.929738
v 1.501059 1.075686 0.918819
v 1.463191 1.036235 0.918819
v 1.358889 1.195341 0.748542
v 1.489086 1.070366 0.789882
v 1.448265 1.027839 0.789882
v 1.318068 1.152813 0.748542
v 1.323767 1.284452 0.369667
v 1.594532 1.024548 0.343498
v 1.518111 0.944933 0.343498
v 1.247345 1.204836 0.369667
vn -0.5126 -0.7733 0.3730
vn -0.8389 0.5435 -0.0291
vn 0.5483 0.8323 -0.0815
vn 0.8367 -0.5336 0.1233
vn -0.0000 -0.0000 -1.0000
vn 0.0303 0.1023 0.9943
vn 0.8363 -0.5408 -0.0899
vn 0.5190 0.8249 0.2238
vn -0.8165 0.5448 0.1911
vn -0.5257 -0.8355 0.1599
vn 0.8364 -0.5377 0.1062
vn 0.5321 0.8458 -0.0384
vn -0.8399 0.5369 -0.0788
vn -0.5251 -0.8346 0.1667
vn -0.5066 -0.8051 0.3086
vn -0.8463 0.5327 0.0047
vn 0.5167 0.8212 0.2421
vn 0.8422 -0.5213 0.1381
vn -0.4994 -0.7938 0.3472
vn -0.8294 0.5274 0.1842
vn 0.4952 0.7871 0.3678
vn 0.8464 -0.5316 0.0326
vn 0.0375 0.0596 0.9975
vn -0.9675 0.1990 0.1558
vn 0.2170 0.9749 -0.0496
vn 0.9748 -0.2005 0.0976
vn -0.2322 -0.9675 0.0999
vn -0.5813 0.1196 0.8048
vn -0.2022 -0.9793 -0.0106
vn 0.9274 -0.1908 0.3216
vn 0.2107 0.9596 0.1866
vn -0.9397 0.1933 0.2820
vn -0.1888 -0.9736 0.1285
vn 0.8642 -0.1778 0.4707
vn 0.1987 0.9796 -0.0314
vn -0.9534 0.1961 -0.2293
vn -0.7378 -0.3659 0.5673
vn -0.4285 0.9014 0.0617
vn 0.8916 0.4421 -0.0977
vn 0.4582 -0.8867 0.0617
vn 0.4341 0.2152 0.8748
vn 0.4475 -0.8927 0.0527
vn 0.8724 0.4326 0.2277
vn -0.4398 0.8966 0.0527
vn -0.8863 -0.4395 0.1459
vn -0.2093 0.7965 0.5673
vn 0.9694 0.2377 0.0617
vn 0.2530 -0.9625 -0.0977
vn -0.9610 -0.2697 0.0617
vn 0.1232 -0.4686 0.8748
vn -0.9647 -0.2580 0.0527
vn 0.2475 -0.9417 0.2277
vn 0.9669 0.2497 0.0527
vn -0.2515 0.9568 0.1459
vn 0.3903 0.9074 0.1558
vn 0.9110 -0.4094 -0.0495
vn -0.3933 -0.9142 0.0976
vn -0.9007 0.4228 0.0999
vn 0.2345 0.5452 0.8048
vn -0.9183 0.3958 -0.0106
vn -0.3742 -0.8698 0.3216
vn 0.8973 -0.4001 0.1866
vn 0.3791 0.8813 0.2820
vn -0.9154 0.3815 0.1285
vn -0.3486 -0.8105 0.4707
vn 0.9192 -0.3924 -0.0314
vn 0.3846 0.8941 -0.2293
vn -0.6539 0.6582 0.3730
vn 0.7017 0.7118 -0.0291
vn 0.7045 -0.7050 -0.0815
vn -0.6915 -0.7117 0.1233
vn 0.0940 -0.0503 0.9943
vn -0.6986 -0.7099 -0.0899
vn 0.7031 -0.6749 0.2238
vn 0.6985 0.6897 0.1911
vn -0.7121 0.6836 0.1599
vn -0.6955 -0.7106 0.1062
vn 0.7209 -0.6920 -0.0384
vn 0.6955 0.7142 -0.0788
vn -0.7113 0.6828 0.1667
vn -0.6862 0.6587 0.3086
vn 0.6927 0.7212 0.0047
vn 0.7000 -0.6719 0.2421
vn -0.6806 -0.7195 0.1381
vn -0.6766 0.6494 0.3472
vn 0.6840 0.7058 0.1842
vn 0.6709 -0.6439 0.3678
vn -0.6915 -0.7216 0.0326
vn 0.0508 -0.0487 0.9975
vt 0.562500 0.000000
vt 0.625000 0.000000
vt 0.625000 0.250000
vt 0.562500 0.250000
vt 0.625000 0.500000
vt 0.562500 0.500000
vt 0.625000 0.750000
vt 0.562500 0.750000
vt 0.625000 1.000000
vt 0.562500 1.000000
vt 0.125000 0.500000
vt 0.375000 0.500000
vt 0.375000 0.750000
vt 0.125000 0.750000
vt 0.875000 0.500000
vt 0.875000 0.750000
vt 0.437500 0.750000
vt 0.500000 0.750000
vt 0.500000 1.000000
vt 0.437500 1.000000
vt 0.437500 0.500000
vt 0.500000 0.500000
vt 0.437500 0.250000
vt 0.500000 0.250000
vt 0.437500 0.000000
vt 0.500000 0.000000
vt 0.531250 0.750000
vt 0.531250 1.000000
vt 0.531250 0.500000
vt 0.531250 0.250000
vt 0.531250 0.000000
vt 0.375000 0.000000
vt 0.375000 0.250000
vt 0.375000 1.000000
vt 0.000000 0.000000
s 0
g Bush_Material.034
usemtl Material.034
f 13/1/1 2/2/1 4/3/1 14/4/1
f 14/4/2 4/3/2 8/5/2 15/6/2
f 15/6/3 8/5/3 6/7/3 16/8/3
f 16/8/4 6/7/4 2/9/4 13/10/4
f 3/11/5 7/12/5 5/13/5 1/14/5
f 8/5/6 4/15/6 2/16/6 6/7/6
f 23/17/7 12/18/7 9/19/7 24/20/7
f 22/21/8 11/22/8 12/18/8 23/17/8
f 21/23/9 10/24/9 11/22/9 22/21/9
f 24/25/10 9/26/10 10/24/10 21/23/10
f 19/27/11 16/8/11 13/10/11 20/28/11
f 18/29/12 15/6/12 16/8/12 19/27/12
f 17/30/13 14/4/13 15/6/13 18/29/13
f 20/31/14 13/1/14 14/4/14 17/30/14
f 9/26/15 20/31/15 17/30/15 10/24/15
f 10/24/16 17/30/16 18/29/16 11/22/16
f 11/22/17 18/29/17 19/27/17 12/18/17
f 12/18/18 19/27/18 20/28/18 9/19/18
f 1/32/19 24/25/19 21/23/19 3/33/19
f 3/33/20 21/23/20 22/21/20 7/12/20
f 7/12/21 22/21/21 23/17/21 5/13/21
f 5/13/22 23/17/22 24/20/22 1/34/22
f 16/35/23 15/35/23 14/35/23 13/35/23
g Bush_Material.035
usemtl Material.035
f 37/1/24 26/2/24 28/3/24 38/4/24
f 38/4/25 28/3/25 32/5/25 39/6/25
f 39/6/26 32/5/26 30/7/26 40/8/26
f 40/8/27 30/7/27 26/9/27 37/10/27
f 27/11/5 31/12/5 29/13/5 25/14/5
f 32/5/28 28/15/28 26/16/28 30/7/28
f 29/13/29 36/18/29 33/19/29 25/34/29
f 31/12/30 35/22/30 36/18/30 29/13/30
f 27/33/31 34/24/31 35/22/31 31/12/31
f 25/32/32 33/26/32 34/24/32 27/33/32
f 36/18/33 40/8/33 37/10/33 33/19/33
f 35/22/34 39/6/34 40/8/34 36/18/34
f 34/24/35 38/4/35 39/6/35 35/22/35
f 33/26/36 37/1/36 38/4/36 34/24/36
g Bush_Material.036
usemtl Material.036
f 49/26/37 42/2/37 44/3/37 50/24/37
f 50/24/38 44/3/38 48/5/38 51/22/38
f 51/22/39 48/5/39 46/7/39 52/18/39
f 52/18/40 46/7/40 42/9/40 49/19/40
f 43/11/5 47/12/5 45/13/5 41/14/5
f 48/5/41 44/15/41 42/16/41 46/7/41
f 45/13/42 52/18/42 49/19/42 41/34/42
f 47/12/43 51/22/43 52/18/43 45/13/43
f 43/33/44 50/24/44 51/22/44 47/12/44
f 41/32/45 49/26/45 50/24/45 43/33/45
g Bush_Material.027
usemtl Material.027
f 61/26/46 54/2/46 56/3/46 62/24/46
f 62/24/47 56/3/47 60/5/47 63/22/47
f 63/22/48 60/5/48 58/7/48 64/18/48
f 64/18/49 58/7/49 54/9/49 61/19/49
f 55/11/5 59/12/5 57/13/5 53/14/5
f 60/5/50 56/15/50 54/16/50 58/7/50
f 57/13/51 64/18/51 61/19/51 53/34/51
f 59/12/52 63/22/52 64/18/52 57/13/52
f 55/33/53 62/24/53 63/22/53 59/12/53
f 53/32/54 61/26/54 62/24/54 55/33/54
g Bush_Material.026
usemtl Material.026
f 77/1/55 66/2/55 68/3/55 78/4/55
f 78/4/56 68/3/56 72/5/56 79/6/56
f 79/6/57 72/5/57 70/7/57 80/8/57
f 80/8/58 70/7/58 66/9/58 77/10/58
f 67/11/5 71/12/5 69/13/5 65/14/5
f 72/5/59 68/15/59 66/16/59 70/7/59
f 69/13/60 76/18/60 73/19/60 65/34/60
f 71/12/61 75/22/61 76/18/61 69/13/61
f 67/33/62 74/24/62 75/22/62 71/12/62
f 65/32/63 73/26/63 74/24/63 67/33/63
f 76/18/64 80/8/64 77/10/64 73/19/64
f 75/22/65 79/6/65 80/8/65 76/18/65
f 74/24/66 78/4/66 79/6/66 75/22/66
f 73/26/67 77/1/67 78/4/67 74/24/67
g Bush_Material.028
usemtl Material.028
f 93/1/68 82/2/68 84/3/68 94/4/68
f 94/4/69 84/3/69 88/5/69 95/6/69
f 95/6/70 88/5/70 86/7/70 96/8/70
f 96/8/71 86/7/71 82/9/71 93/10/71
f 83/11/5 87/12/5 85/13/5 81/14/5
f 88/5/72 84/15/72 82/16/72 86/7/72
f 103/17/73 92/18/73 89/19/73 104/20/73
f 102/21/74 91/22/74 92/18/74 103/17/74
f 101/23/75 90/24/75 91/22/75 102/21/75
f 104/25/76 89/26/76 90/24/76 101/23/76
f 99/27/77 96/8/77 93/10/77 100/28/77
f 98/29/78 95/6/78 96/8/78 99/27/78
f 97/30/79 94/4/79 95/6/79 98/29/79
f 100/31/80 93/1/80 94/4/80 97/30/80
f 89/26/81 100/31/81 97/30/81 90/24/81
f 90/24/82 97/30/82 98/29/82 91/22/82
f 91/22/83 98/29/83 99/27/83 92/18/83
f 92/18/84 99/27/84 100/28/84 89/19/84
f 81/32/85 104/25/85 101/23/85 83/33/85
f 83/33/86 101/23/86 102/21/86 87/12/86
f 87/12/87 102/21/87 103/17/87 85/13/87
f 85/13/88 103/17/88 104/20/88 81/34/88
f 96/35/89 95/35/89 94/35/89 93/35/89
